{"title":"Wolf.Creek.2.2013.NORDiC.720p.WebRip.x264-KraBBa","uid":10126674,"size":3406934211,"categoryP":"video","categoryS":"hd___movies","magnet":"?xt=urn:btih:749482a95397a1174cd7c0453eb861a37efa411a&amp;dn=Wolf.Creek.2.2013.NORDiC.720p.WebRip.x264-KraBBa&amp;tr=udp%3A%2F%2Ftracker.openbittorrent.com%3A80&amp;tr=udp%3A%2F%2Fopen.demonii.com%3A1337&amp;tr=udp%3A%2F%2Ftracker.coppersurfer.tk%3A6969&amp;tr=udp%3A%2F%2Fexodus.desync.com%3A6969","seeders":1,"leechers":0,"uploader":"ecsjjgg","files":-1,"time":1399773020,"description":"General\nComplete name                  : KraBBa-Wolf.Creek.2.mkv\nFormat                         : Matroska\nFormat version                 : Version 4 / Version 2\nFile size                      : 3.15 GiB\nDuration                       : 1h 46mn\nOverall bit rate               : 4 238 Kbps\nEncoded date                   : UTC 2014-05-10 13:45:16\nWriting application            : mkvmerge v6.9.1 ('Blue Panther') 32bit built on Apr 18 2014 18:15:44\nWriting library                : libebml v1.3.0 + libmatroska v1.4.1\n\nVideo\nID                             : 1\nFormat                         : AVC\nFormat/Info                    : Advanced Video Codec\nFormat profile                 : &lt;a class=&quot;__cf_email__&quot; href=&quot;/cdn-cgi/l/email-protection&quot; data-cfemail=&quot;dd90bcb4b39d91eef3ec&quot;&gt;[email&amp;#160;protected]&lt;/a&gt;&lt;script cf-hash='f9e31' type=&quot;text/javascript&quot;&gt;\n/* &lt;![CDATA[ */!function(){try{var t=&quot;currentScript&quot;in document?document.currentScript:function(){for(var t=document.getElementsByTagName(&quot;script&quot;),e=t.length;e--;)if(t[e].getAttribute(&quot;cf-hash&quot;))return t[e]}();if(t&amp;&amp;t.previousSibling){var e,r,n,i,c=t.previousSibling,a=c.getAttribute(&quot;data-cfemail&quot;);if(a){for(e=&quot;&quot;,r=parseInt(a.substr(0,2),16),n=2;a.length-n;n+=2)i=parseInt(a.substr(n,2),16)^r,e+=String.fromCharCode(i);e=document.createTextNode(e),c.parentNode.replaceChild(e,c)}}}catch(u){}}();/* ]]&gt; */&lt;/script&gt;\nFormat settings, CABAC         : No\nFormat settings, ReFrames      : 2 frames\nCodec ID                       : V_MPEG4/ISO/AVC\nDuration                       : 1h 46mn\nBit rate                       : 3 770 Kbps\nWidth                          : 1 280 pixels\nHeight                         : 540 pixels\nDisplay aspect ratio           : 2.40:1\nFrame rate mode                : Constant\nFrame rate                     : 23.976 fps\nColor space                    : YUV\nChroma subsampling             : 4:2:0\nBit depth                      : 8 bits\nScan type                      : Progressive\nBits/(Pixel*Frame)             : 0.227\nStream size                    : 2.80 GiB (89%)\nDefault                        : Yes\nForced                         : No\nColor primaries                : BT.709\nTransfer characteristics       : BT.709\nMatrix coefficients            : BT.709\n\nAudio\nID                             : 2\nFormat                         : AC-3\nFormat/Info                    : Audio Coding 3\nMode extension                 : CM (complete main)\nFormat settings, Endianness    : Big\nCodec ID                       : A_AC3\nDuration                       : 1h 46mn\nBit rate mode                  : Constant\nBit rate                       : 384 Kbps\nChannel count                  : 6 channels\nChannel positions              : Front: L C R, Side: L R, LFE\nSampling rate                  : 48.0 KHz\nBit depth                      : 16 bits\nCompression mode               : Lossy\nStream size                    : 292 MiB (9%)\nLanguage                       : English\nDefault                        : Yes\nForced                         : No\n\nText #1\nID                             : 3\nFormat                         : UTF-8\nCodec ID                       : S_TEXT/UTF8\nCodec ID/Info                  : UTF-8 Plain Text\nLanguage                       : Swedish\nDefault                        : Yes\nForced                         : No\n\nText #2\nID                             : 4\nFormat                         : UTF-8\nCodec ID                       : S_TEXT/UTF8\nCodec ID/Info                  : UTF-8 Plain Text\nLanguage                       : Danish\nDefault                        : No\nForced                         : No\n\nText #3\nID                             : 5\nFormat                         : UTF-8\nCodec ID                       : S_TEXT/UTF8\nCodec ID/Info                  : UTF-8 Plain Text\nLanguage                       : Norwegian\nDefault                        : No\nForced                         : No\n\nText #4\nID                             : 6\nFormat                         : UTF-8\nCodec ID                       : S_TEXT/UTF8\nCodec ID/Info                  : UTF-8 Plain Text\nLanguage                       : Finnish\nDefault                        : No\nForced                         : No\n\nText #5\nID                             : 7\nFormat                         : UTF-8\nCodec ID                       : S_TEXT/UTF8\nCodec ID/Info                  : UTF-8 Plain Text\nLanguage                       : English\nDefault                        : No\nForced                         : No\n\nMenu\n00:00:00.000                   : en:It's an Under\n00:11:48.000                   : en:Rutger &amp; Katarina\n00:21:16.000                   : en:Stuck in the Middle of Nowhere\n00:31:38.000                   : en:Escape\n00:35:13.000                   : en:You Never Stop\n00:44:42.000                   : en:Where to Go?\n00:53:41.000                   : en:&quot;You'll have to do better than that!&quot;\n00:59:04.000                   : en:Safety?\n01:10:18.000                   : en:Mick Taylor\n01:19:22.000                   : en:Aussie History\n01:32:17.000                   : en:Beating the Game\n01:41:16.000                   : en:Credits","torrent":{"xt":"urn:btih:749482a95397a1174cd7c0453eb861a37efa411a","amp;dn":"Wolf.Creek.2.2013.NORDiC.720p.WebRip.x264-KraBBa","amp;tr":["udp%3A%2F%2Ftracker.openbittorrent.com%3A80","udp%3A%2F%2Fopen.demonii.com%3A1337","udp%3A%2F%2Ftracker.coppersurfer.tk%3A6969","udp%3A%2F%2Fexodus.desync.com%3A6969"],"infoHash":"749482a95397a1174cd7c0453eb861a37efa411a","infoHashBuffer":{"type":"Buffer","data":[116,148,130,169,83,151,161,23,76,215,192,69,62,184,97,163,126,250,65,26]},"announce":[],"urlList":[]}}